<svg xmlns="http://www.w3.org/2000/svg" id="prefix__구성_요소_21_1" width="93.151" height="23.542" data-name="구성 요소 21 – 1" viewBox="0 0 93.151 23.542">
    <defs>
        <style>
            .prefix__cls-2{fill:#0b172f}
        </style>
    </defs>
    <g id="prefix__그룹_764" data-name="그룹 764">
        <path id="prefix__패스_656" fill="#c9003f" d="M242.634 514.277h-6.413a4.385 4.385 0 0 1 .776 2.5v14.684a4.385 4.385 0 0 1-.776 2.5h6.413a3.544 3.544 0 0 0 3.544-3.544v-12.596a3.544 3.544 0 0 0-3.544-3.544z" data-name="패스 656" transform="translate(-217.657 -512.346)"/>
        <path id="prefix__패스_657" d="M196.125 510.106a4.421 4.421 0 0 0-4.728-1.8l-10.485 2.628a4.427 4.427 0 0 0-3.351 4.294v9.428a4.427 4.427 0 0 0 3.351 4.295l10.485 2.628a4.432 4.432 0 0 0 5.5-4.295V512.6a4.385 4.385 0 0 0-.772-2.494z" class="prefix__cls-2" data-name="패스 657" transform="translate(-177.561 -508.175)"/>
    </g>
    <g id="prefix__그룹_765" data-name="그룹 765" transform="translate(37.676 3.585)">
        <path id="prefix__패스_658" d="M309.583 535.275a7.051 7.051 0 0 1-5.042 1.907 7.6 7.6 0 0 1-7.931-7.5 7.436 7.436 0 0 1 7.667-7.44 7.09 7.09 0 0 1 5.212 2.021l-1.284 1.68a5.638 5.638 0 0 0-3.928-1.511 4.991 4.991 0 0 0-5.1 5.193 5.3 5.3 0 0 0 5.476 5.382 5.8 5.8 0 0 0 3.814-1.3z" class="prefix__cls-2" data-name="패스 658" transform="translate(-296.611 -521.378)"/>
        <path id="prefix__패스_659" d="M343.149 534.986V519.5h2.228v15.484z" class="prefix__cls-2" data-name="패스 659" transform="translate(-328.421 -519.502)"/>
        <path id="prefix__패스_660" d="M364.114 538.3h2.228v8.5a6.145 6.145 0 0 1-4.23 1.322c-2.511 0-4.286-1.227-4.286-3.7V538.3h2.228v5.571c0 1.888 1.076 2.4 2.285 2.4a2.989 2.989 0 0 0 1.775-.51z" class="prefix__cls-2" data-name="패스 660" transform="translate(-338.453 -532.348)"/>
        <path id="prefix__패스_661" d="M391.48 540.818v-7.7h-1.794V531.3h1.794v-3.267h2.228v3.267h2.341v1.813h-2.341v7.7z" class="prefix__cls-2" data-name="패스 661" transform="translate(-360.23 -525.334)"/>
        <path id="prefix__패스_662" d="M420.984 546.166a5.157 5.157 0 0 1-3.758 1.379 5.043 5.043 0 0 1 .227-10.083 5.237 5.237 0 0 1 3.248 1.114l-.85 1.681a3.564 3.564 0 0 0-2.3-.925 2.956 2.956 0 0 0-2.945 3.191 3 3 0 0 0 2.945 3.191 3.661 3.661 0 0 0 2.719-1.1z" class="prefix__cls-2" data-name="패스 662" transform="translate(-375.686 -531.777)"/>
        <path id="prefix__패스_663" d="M451.322 534.986v-5.193c0-1.662-.3-2.644-1.85-2.644a3.236 3.236 0 0 0-2.191 1.1v6.741h-2.228V519.5h2.228v6.93a4.63 4.63 0 0 1 3.059-1.246c2.077 0 3.21 1.039 3.21 3.437v6.364z" class="prefix__cls-2" data-name="패스 663" transform="translate(-398.075 -519.502)"/>
    </g>
</svg>
